Patient4_TMGait_0pt3_02_left_14_GRF.mot
version=1
nRows=52
nColumns=19
inDegrees=no
endheader
time	F1x	F1y	F1z	M1x	M1y	M1z	F2x	F2y	F2z	M2x	M2y	M2z	EC1x	EC1y	EC1z	EC2x	EC2y	EC2z
27.08	-15.3457	15.638	1.5647	-5.2272	-5.7255	17.465	-12.0872	750.0161	-48.4337	292.802	56.5937	712.8623	-0.0592	0.0182	-0.0073	-0.0462	0.0165	0.9585
27.0992	-10.9113	11.381	1.2642	-3.8239	-4.2508	12.5392	-13.2434	751.048	-46.9271	294.084	54.9608	712.1952	-0.0592	0.0182	-0.0073	-0.0462	0.0165	0.9585
27.1184	-6.931	7.5406	0.93694	-2.5522	-2.8657	8.1758	-14.0498	752.8447	-45.1142	295.8122	52.9262	711.5584	-0.0592	0.0182	-0.0073	-0.0462	0.0165	0.9585
27.1376	-3.7536	4.4751	0.64183	-1.5328	-1.7217	4.7464	-14.4926	755.8062	-43.1693	298.0806	50.6709	711.3623	-0.0592	0.0182	-0.0073	-0.0462	0.0165	0.9585
27.1569	-1.4573	2.2719	0.40704	-0.79625	-0.86824	2.3175	-14.6434	760.6642	-41.3185	301.1018	48.434	712.3821	-0.0592	0.0182	-0.0073	-0.0462	0.0165	0.9585
27.1761	0.038506	0.85071	0.238	-0.31763	-0.2916	0.77524	-14.6059	768.184	-39.7869	305.1008	46.4548	715.4531	-0.0592	0.0182	-0.0073	-0.0462	0.0165	0.9585
27.1953	0.88727	0.045858	0.13109	-0.044721	0.0509	-0.079147	-14.465	778.7803	-38.7523	310.1765	44.9179	721.0826	-0.0592	0.0182	-0.0073	-0.0462	0.0165	0.9585
27.2145	1.2589	-0.33549	0.077653	0.085102	0.21033	-0.468	-14.2495	792.2736	-38.303	316.2114	43.9036	729.2074	-0.0592	0.0182	-0.0073	-0.0462	0.0165	0.9585
27.2337	1.3071	-0.48078	0.063513	0.13556	0.23807	-0.59638	-13.9247	807.7552	-38.4256	322.8216	43.3777	739.0669	-0.0592	0.0182	-0.0073	-0.0462	0.0165	0.9585
27.2529	1.1584	-0.55844	0.070884	0.16733	0.18328	-0.6471	-13.3945	823.6479	-39.018	329.3816	43.2017	749.2563	-0.0592	0.0182	-0.0073	-0.0462	0.0165	0.9585
27.2721	0.91052	-0.71426	0.083284	0.23402	0.088857	-0.77505	-12.5242	837.9576	-39.92	335.1208	43.1744	757.9776	-0.0592	0.0182	-0.0073	-0.0462	0.0165	0.9585
27.2914	0.63239	-1.0718	0.089201	0.37898	-0.012795	-1.1051	-11.1861	848.6453	-40.9415	339.2635	43.0726	763.3882	-0.0592	0.0182	-0.0073	-0.0462	0.0165	0.9585
27.3106	0.37401	-1.7226	0.080295	0.63266	-0.094289	-1.7314	-9.2865	854.0379	-41.8907	341.185	42.6845	763.9809	-0.0592	0.0182	-0.0073	-0.0462	0.0165	0.9585
27.3298	0.17623	-2.7061	0.051511	1.0076	-0.13076	-2.6986	-6.7861	853.1431	-42.6024	340.5317	41.8404	758.8739	-0.0592	0.0182	-0.0073	-0.0462	0.0165	0.9585
27.349	0.081667	-3.9848	-0.0042155	1.49	-0.098743	-3.9722	-3.7169	845.7793	-42.9661	337.2668	40.4469	747.9372	-0.0592	0.0182	-0.0073	-0.0462	0.0165	0.9585
27.3682	0.14145	-5.4075	-0.092848	2.0242	0.027467	-5.4091	-0.17578	832.5672	-42.9425	331.6617	38.5019	731.7869	-0.0592	0.0182	-0.0073	-0.0462	0.0165	0.9585
27.3874	0.4169	-6.6699	-0.21797	2.4969	0.27426	-6.7119	3.7014	814.7743	-42.5673	324.2328	36.0881	711.6295	-0.0592	0.0182	-0.0073	-0.0462	0.0165	0.9585
27.4066	0.97681	-7.27	-0.379	2.7169	0.6649	-7.3795	7.747	794.0331	-41.9419	315.6319	33.3624	689.0043	-0.0592	0.0182	-0.0073	-0.0462	0.0165	0.9585
27.4259	1.8904	-6.4611	-0.56077	2.3941	1.2083	-6.6557	11.7693	772.0343	-41.2104	306.5265	30.5327	665.5035	-0.0592	0.0182	-0.0073	-0.0462	0.0165	0.9585
27.4451	3.2074	-3.2288	-0.72553	1.1368	1.8797	-3.5076	15.5774	750.2811	-40.5156	297.5082	27.8083	642.5411	-0.0592	0.0182	-0.0073	-0.0462	0.0165	0.9585
27.4643	4.9249	3.6728	-0.80966	-1.5333	2.6072	3.334	18.9885	729.8585	-39.9628	289.0079	25.3663	621.1387	-0.0592	0.0182	-0.0073	-0.0462	0.0165	0.9585
27.4835	6.9375	15.5907	-0.71747	-6.1308	3.2512	15.2354	21.8358	711.2387	-39.5986	281.2205	23.3289	601.7612	-0.0592	0.0182	-0.0073	-0.0462	0.0165	0.9585
27.5027	8.9711	33.7155	-0.31959	-13.1061	3.5724	33.4105	23.9601	694.1363	-39.392	274.0463	21.7495	584.2088	-0.0592	0.0182	-0.0073	-0.0462	0.0165	0.9585
27.5219	10.4774	58.6891	0.53166	-22.6971	3.2087	58.5367	25.2038	677.4889	-39.232	267.0778	20.6133	567.6194	-0.0592	0.0182	-0.0073	-0.0462	0.0165	0.9585
27.5411	10.6952	90.2498	1.975	-34.7904	1.7349	90.3875	25.4104	659.6545	-38.9616	259.6729	19.8683	550.649	-0.0592	0.0182	-0.0073	-0.0462	0.0165	0.9585
27.5604	9.2903	127.3526	4.1486	-48.9627	-1.1049	127.93	24.4629	638.8791	-38.404	251.142	19.4277	531.8508	-0.0592	0.0182	-0.0073	-0.0462	0.0165	0.9585
27.5796	6.4797	168.2266	7.171	-64.5106	-5.3341	169.3182	22.3665	613.8249	-37.3974	240.964	19.1634	510.0839	-0.0592	0.0182	-0.0073	-0.0462	0.0165	0.9585
27.5988	2.786	210.5043	10.9491	-80.5303	-10.6422	212.0255	19.3342	583.988	-35.8298	228.9561	18.9054	484.8419	-0.0592	0.0182	-0.0073	-0.0462	0.0165	0.9585
27.618	-1.1463	252.224	15.1065	-96.3016	-16.3785	253.9016	15.7957	549.8912	-33.6765	215.3436	18.47	456.4163	-0.0592	0.0182	-0.0073	-0.0462	0.0165	0.9585
27.6372	-4.8407	292.647	19.2591	-111.5754	-21.9579	294.0552	12.2856	512.8287	-31.0223	200.6503	17.7188	425.7093	-0.0592	0.0182	-0.0073	-0.0462	0.0165	0.9585
27.6564	-8.0004	331.9315	23.1241	-126.4377	-26.9779	332.5418	9.2504	474.3026	-28.0303	185.4711	16.6059	393.809	-0.0592	0.0182	-0.0073	-0.0462	0.0165	0.9585
27.6756	-10.4128	370.3747	26.5362	-141.0138	-31.1947	369.5914	6.9299	435.6155	-24.8948	170.3119	15.1815	361.6915	-0.0592	0.0182	-0.0073	-0.0462	0.0165	0.9585
27.6949	-11.9026	407.8513	29.442	-155.2548	-34.4936	405.0536	5.3396	397.7334	-21.8192	155.5371	13.5809	330.1174	-0.0592	0.0182	-0.0073	-0.0462	0.0165	0.9585
27.7141	-12.3536	443.6589	31.8479	-168.8845	-36.846	438.2473	4.3252	361.336	-18.9938	141.3923	11.9909	299.6578	-0.0592	0.0182	-0.0073	-0.0462	0.0165	0.9585
27.7333	-11.7608	476.7212	33.7604	-181.4847	-38.2734	468.1726	3.6603	326.9721	-16.5716	128.0692	10.5978	270.8086	-0.0592	0.0182	-0.0073	-0.0462	0.0165	0.9585
27.7525	-10.2355	505.9574	35.1461	-192.6423	-38.8049	493.8737	3.1524	295.1854	-14.6533	115.7578	9.5367	244.0708	-0.0592	0.0182	-0.0073	-0.0462	0.0165	0.9585
27.7717	-7.9689	530.6295	35.9225	-202.0825	-38.4557	514.7624	2.7036	266.555	-13.2735	104.6656	8.8589	219.9652	-0.0592	0.0182	-0.0073	-0.0462	0.0165	0.9585
27.7909	-5.204	550.4724	36.0032	-209.7126	-37.2592	530.7425	2.3047	241.6014	-12.3931	94.9823	8.531	198.9514	-0.0592	0.0182	-0.0073	-0.0462	0.0165	0.9585
27.8101	-2.2111	565.6287	35.3847	-215.5854	-35.3333	542.1244	1.9995	220.6194	-11.9124	86.8157	8.4583	181.2847	-0.0592	0.0182	-0.0073	-0.0462	0.0165	0.9585
27.8294	0.75967	576.5579	34.1713	-219.8678	-32.8871	549.5151	1.8378	203.5607	-11.7052	80.1455	8.5222	166.9177	-0.0592	0.0182	-0.0073	-0.0462	0.0165	0.9585
27.8486	3.5162	583.9789	32.5299	-222.8255	-30.161	553.7508	1.8532	190.0071	-11.6595	74.8107	8.6183	155.4887	-0.0592	0.0182	-0.0073	-0.0462	0.0165	0.9585
27.8678	5.9181	588.782	30.6425	-224.7892	-27.3849	555.7998	2.0655	179.2546	-11.6947	70.5418	8.6753	146.3993	-0.0592	0.0182	-0.0073	-0.0462	0.0165	0.9585
27.887	7.8725	591.8927	28.6823	-226.1013	-24.7542	556.6268	2.4816	170.5032	-11.7541	67.0317	8.6463	138.9734	-0.0592	0.0182	-0.0073	-0.0462	0.0165	0.9585
27.9062	9.3309	594.135	26.7999	-227.0656	-22.4199	557.0678	3.0888	163.0868	-11.8017	64.0234	8.5098	132.6529	-0.0592	0.0182	-0.0073	-0.0462	0.0165	0.9585
27.9254	10.2704	596.1003	25.1202	-227.9004	-20.4927	557.7089	3.851	156.5832	-11.8192	61.354	8.269	127.0895	-0.0592	0.0182	-0.0073	-0.0462	0.0165	0.9585
27.9446	10.7117	598.1266	23.7275	-228.73	-19.0264	558.8522	4.7205	150.7761	-11.7951	58.9411	7.9388	122.1032	-0.0592	0.0182	-0.0073	-0.0462	0.0165	0.9585
27.9639	10.7185	600.387	22.6735	-229.6159	-18.0261	560.6028	5.6384	145.5193	-11.7243	56.7322	7.5422	117.5728	-0.0592	0.0182	-0.0073	-0.0462	0.0165	0.9585
27.9831	10.3331	603.0983	22.0032	-230.6342	-17.5	563.0865	6.5216	140.5599	-11.6107	54.6352	7.1179	113.2961	-0.0592	0.0182	-0.0073	-0.0462	0.0165	0.9585
28.0023	9.5487	606.8446	21.7629	-231.9977	-17.4778	566.7526	7.2624	135.4394	-11.4603	52.4802	6.7124	108.9097	-0.0592	0.0182	-0.0073	-0.0462	0.0165	0.9585
28.0215	8.327	612.8196	21.9864	-234.1512	-17.993	572.6003	7.7458	129.5193	-11.2703	50.0268	6.3636	103.9078	-0.0592	0.0182	-0.0073	-0.0462	0.0165	0.9585
28.0407	6.6503	622.7215	22.6864	-237.7339	-19.0576	582.0816	7.8646	122.1067	-11.0234	47.0141	6.0954	97.747	-0.0592	0.0182	-0.0073	-0.0462	0.0165	0.9585
28.0599	4.6061	638.2254	23.8795	-243.38	-20.6582	596.6093	7.5258	112.6145	-10.685	43.2236	5.9147	89.9708	-0.0592	0.0182	-0.0073	-0.0462	0.0165	0.9585
